<svg width="150" height="150" viewBox="0 0 98 96" xmlns="http://www.w3.org/2000/svg"><path fill-rule="evenodd" clip-rule="evenodd" d="M48.854 0C21.839 0 0 22 0 49.217c0 21.756 13.993 40.172 33.405 46.69 2.427.49 3.316-1.059 3.316-2.362 0-1.141-.08-5.052-.08-9.127-13.59 2.934-16.42-5.867-16.42-5.867-2.184-5.704-5.42-7.17-5.42-7.17-4.448-3.015.324-3.015.324-3.015 4.934.326 7.523 5.052 7.523 5.052 4.367 7.496 11.404 5.378 14.235 4.074.404-3.178 1.699-5.378 3.093-6.6-10.846-1.22-22.245-5.42-22.245-24.033 0-5.293 1.86-9.698 4.934-13.115-.485-1.222-2.103-6.205.485-12.87 0 0 4.045-1.304 13.266 5.052a46.29 46.29 0 0112.054-1.629c4.125 0 8.33.571 12.053 1.629 9.141-6.356 13.186-5.052 13.186-5.052 2.588 6.665.97 11.648.485 12.87 3.075 3.417 4.934 7.822 4.934 13.115 0 18.667-11.404 22.812-22.324 24.033 1.779 1.548 3.316 4.481 3.316 9.126 0 6.6-.08 11.897-.08 13.526 0 1.304.89 2.853 3.316 2.364 19.412-6.52 33.405-24.935 33.405-46.691C97.707 22 75.788 0 48.854 0z" fill="currentColor"/></svg>
